<?xml version="1.0" encoding="UTF-8" standalone="no"?><svg xmlns="http://www.w3.org/2000/svg" xmlns:xlink="http://www.w3.org/1999/xlink" contentStyleType="text/css" height="549px" preserveAspectRatio="none" style="width:1635px;height:549px;background:#FFFFFF;" version="1.1" viewBox="0 0 1635 549" width="1635px" zoomAndPan="magnify"><defs/><g><text fill="#000000" font-family="sans-serif" font-size="14" font-weight="bold" lengthAdjust="spacing" textLength="110" x="755.585" y="22.9951">Info - S1 v.0.1</text><!--entity r11--><g id="elem_r11"><rect fill="#FFFFE0" height="52.5938" rx="35" ry="35" style="stroke:#181818;stroke-width:0.5;" width="131" x="353.17" y="179.2969"/><text fill="#000000" font-family="sans-serif" font-size="14" lengthAdjust="spacing" textLength="41" x="398.17" y="202.292">R1.01</text><text fill="#000000" font-family="sans-serif" font-size="14" lengthAdjust="spacing" textLength="111" x="363.17" y="218.5889">Initiation au dev.</text></g><!--entity r12--><g id="elem_r12"><rect fill="#FFFFE0" height="52.5938" rx="35" ry="35" style="stroke:#181818;stroke-width:0.5;" width="156" x="864.67" y="44.2969"/><text fill="#000000" font-family="sans-serif" font-size="14" lengthAdjust="spacing" textLength="41" x="922.17" y="67.292">R1.02</text><text fill="#000000" font-family="sans-serif" font-size="14" lengthAdjust="spacing" textLength="136" x="874.67" y="83.5889">Dev. interfaces web</text></g><!--entity r13--><g id="elem_r13"><rect fill="#FFFFE0" height="52.5938" rx="35" ry="35" style="stroke:#181818;stroke-width:0.5;" width="96" x="381.67" y="44.2969"/><text fill="#000000" font-family="sans-serif" font-size="14" lengthAdjust="spacing" textLength="41" x="409.17" y="67.292">R1.03</text><text fill="#000000" font-family="sans-serif" font-size="14" lengthAdjust="spacing" textLength="76" x="391.67" y="83.5889">Intro. archi.</text></g><!--entity r14--><g id="elem_r14"><rect fill="#FFFFE0" height="52.5938" rx="35" ry="35" style="stroke:#181818;stroke-width:0.5;" width="130" x="512.67" y="44.2969"/><text fill="#000000" font-family="sans-serif" font-size="14" lengthAdjust="spacing" textLength="41" x="557.17" y="67.292">R1.04</text><text fill="#000000" font-family="sans-serif" font-size="14" lengthAdjust="spacing" textLength="106" x="522.67" y="83.5889">Intro. systèmes</text></g><!--entity r15--><g id="elem_r15"><rect fill="#FFFFE0" height="52.5938" rx="35" ry="35" style="stroke:#181818;stroke-width:0.5;" width="132" x="1366.67" y="44.2969"/><text fill="#000000" font-family="sans-serif" font-size="14" lengthAdjust="spacing" textLength="41" x="1412.17" y="67.292">R1.05</text><text fill="#000000" font-family="sans-serif" font-size="14" lengthAdjust="spacing" textLength="108" x="1376.67" y="83.5889">Introduction BD</text></g><!--entity r16--><g id="elem_r16"><rect fill="#FFFFE0" height="52.5938" rx="35" ry="35" style="stroke:#181818;stroke-width:0.5;" width="134" x="87.67" y="327.2969"/><text fill="#000000" font-family="sans-serif" font-size="14" lengthAdjust="spacing" textLength="41" x="134.17" y="350.292">R1.06</text><text fill="#000000" font-family="sans-serif" font-size="14" lengthAdjust="spacing" textLength="110" x="97.67" y="366.5889">Maths discrètes</text></g><!--entity r17--><g id="elem_r17"><rect fill="#FFFFE0" height="52.5938" rx="35" ry="35" style="stroke:#181818;stroke-width:0.5;" width="166" x="256.67" y="327.2969"/><text fill="#000000" font-family="sans-serif" font-size="14" lengthAdjust="spacing" textLength="41" x="319.17" y="350.292">R1.07</text><text fill="#000000" font-family="sans-serif" font-size="14" lengthAdjust="spacing" textLength="142" x="266.67" y="366.5889">Outils fondamentaux</text></g><!--entity r18--><g id="elem_r18"><rect fill="#FFFFE0" height="52.5938" rx="35" ry="35" style="stroke:#181818;stroke-width:0.5;" width="151" x="1056.17" y="44.2969"/><text fill="#000000" font-family="sans-serif" font-size="14" lengthAdjust="spacing" textLength="41" x="1111.17" y="67.292">R1.08</text><text fill="#000000" font-family="sans-serif" font-size="14" lengthAdjust="spacing" textLength="127" x="1066.17" y="83.5889">Gestion proj. orga.</text></g><!--entity r19--><g id="elem_r19"><rect fill="#FFFFE0" height="52.5938" rx="35" ry="35" style="stroke:#181818;stroke-width:0.5;" width="89" x="1242.17" y="44.2969"/><text fill="#000000" font-family="sans-serif" font-size="14" lengthAdjust="spacing" textLength="41" x="1266.17" y="67.292">R1.09</text><text fill="#000000" font-family="sans-serif" font-size="14" lengthAdjust="spacing" textLength="69" x="1252.17" y="83.5889">Économie</text></g><!--entity r110--><g id="elem_r110"><rect fill="#FFFFE0" height="52.5938" rx="35" ry="35" style="stroke:#181818;stroke-width:0.5;" width="143" x="56.17" y="44.2969"/><text fill="#000000" font-family="sans-serif" font-size="14" lengthAdjust="spacing" textLength="41" x="107.17" y="67.292">R1.10</text><text fill="#000000" font-family="sans-serif" font-size="14" lengthAdjust="spacing" textLength="123" x="66.17" y="83.5889">Anglais technique</text></g><!--entity r111--><g id="elem_r111"><rect fill="#FFFFE0" height="52.5938" rx="35" ry="35" style="stroke:#181818;stroke-width:0.5;" width="151" x="678.17" y="44.2969"/><text fill="#000000" font-family="sans-serif" font-size="14" lengthAdjust="spacing" textLength="41" x="733.17" y="67.292">R1.11</text><text fill="#000000" font-family="sans-serif" font-size="14" lengthAdjust="spacing" textLength="127" x="688.17" y="83.5889">Bases de la comm</text></g><!--entity sae11--><g id="elem_sae11"><polygon fill="#87CEEB" points="550.17,324.2969,560.17,314.2969,697.17,314.2969,697.17,383.1875,687.17,393.1875,550.17,393.1875,550.17,324.2969" style="stroke:#181818;stroke-width:0.5;"/><line style="stroke:#181818;stroke-width:0.5;" x1="687.17" x2="697.17" y1="324.2969" y2="314.2969"/><line style="stroke:#181818;stroke-width:0.5;" x1="550.17" x2="687.17" y1="324.2969" y2="324.2969"/><line style="stroke:#181818;stroke-width:0.5;" x1="687.17" x2="687.17" y1="324.2969" y2="393.1875"/><text fill="#000000" font-family="sans-serif" font-size="14" lengthAdjust="spacing" textLength="53" x="592.17" y="347.292">SAE 1.1</text><text fill="#000000" font-family="sans-serif" font-size="14" lengthAdjust="spacing" textLength="107" x="565.17" y="363.5889">Implémentation</text><text fill="#000000" font-family="sans-serif" font-size="14" lengthAdjust="spacing" textLength="88" x="574.67" y="379.8857">besoin client</text></g><!--entity sae12--><g id="elem_sae12"><polygon fill="#87CEEB" points="251.67,480.2969,261.67,470.2969,427.67,470.2969,427.67,522.8906,417.67,532.8906,251.67,532.8906,251.67,480.2969" style="stroke:#181818;stroke-width:0.5;"/><line style="stroke:#181818;stroke-width:0.5;" x1="417.67" x2="427.67" y1="480.2969" y2="470.2969"/><line style="stroke:#181818;stroke-width:0.5;" x1="251.67" x2="417.67" y1="480.2969" y2="480.2969"/><line style="stroke:#181818;stroke-width:0.5;" x1="417.67" x2="417.67" y1="480.2969" y2="532.8906"/><text fill="#000000" font-family="sans-serif" font-size="14" lengthAdjust="spacing" textLength="53" x="308.17" y="503.292">SAE 1.2</text><text fill="#000000" font-family="sans-serif" font-size="14" lengthAdjust="spacing" textLength="136" x="266.67" y="519.5889">Comparaison d'algo</text></g><!--entity sae13--><g id="elem_sae13"><polygon fill="#87CEEB" points="519.17,184.2969,529.17,174.2969,676.17,174.2969,676.17,226.8906,666.17,236.8906,519.17,236.8906,519.17,184.2969" style="stroke:#181818;stroke-width:0.5;"/><line style="stroke:#181818;stroke-width:0.5;" x1="666.17" x2="676.17" y1="184.2969" y2="174.2969"/><line style="stroke:#181818;stroke-width:0.5;" x1="519.17" x2="666.17" y1="184.2969" y2="184.2969"/><line style="stroke:#181818;stroke-width:0.5;" x1="666.17" x2="666.17" y1="184.2969" y2="236.8906"/><text fill="#000000" font-family="sans-serif" font-size="14" lengthAdjust="spacing" textLength="53" x="566.17" y="207.292">SAE 1.3</text><text fill="#000000" font-family="sans-serif" font-size="14" lengthAdjust="spacing" textLength="117" x="534.17" y="223.5889">Installation poste</text></g><!--entity sae14--><g id="elem_sae14"><polygon fill="#87CEEB" points="1339.17,184.2969,1349.17,174.2969,1462.17,174.2969,1462.17,226.8906,1452.17,236.8906,1339.17,236.8906,1339.17,184.2969" style="stroke:#181818;stroke-width:0.5;"/><line style="stroke:#181818;stroke-width:0.5;" x1="1452.17" x2="1462.17" y1="184.2969" y2="174.2969"/><line style="stroke:#181818;stroke-width:0.5;" x1="1339.17" x2="1452.17" y1="184.2969" y2="184.2969"/><line style="stroke:#181818;stroke-width:0.5;" x1="1452.17" x2="1452.17" y1="184.2969" y2="236.8906"/><text fill="#000000" font-family="sans-serif" font-size="14" lengthAdjust="spacing" textLength="53" x="1369.17" y="207.292">SAE 1.4</text><text fill="#000000" font-family="sans-serif" font-size="14" lengthAdjust="spacing" textLength="83" x="1354.17" y="223.5889">Création BD</text></g><!--entity sae15--><g id="elem_sae15"><polygon fill="#87CEEB" points="794.67,184.2969,804.67,174.2969,944.67,174.2969,944.67,226.8906,934.67,236.8906,794.67,236.8906,794.67,184.2969" style="stroke:#181818;stroke-width:0.5;"/><line style="stroke:#181818;stroke-width:0.5;" x1="934.67" x2="944.67" y1="184.2969" y2="174.2969"/><line style="stroke:#181818;stroke-width:0.5;" x1="794.67" x2="934.67" y1="184.2969" y2="184.2969"/><line style="stroke:#181818;stroke-width:0.5;" x1="934.67" x2="934.67" y1="184.2969" y2="236.8906"/><text fill="#000000" font-family="sans-serif" font-size="14" lengthAdjust="spacing" textLength="53" x="838.17" y="207.292">SAE 1.5</text><a href="https://jmbruel.github.io/antora-template/but/1.0/sae-1.5/master.html" target="_top" title="https://jmbruel.github.io/antora-template/but/1.0/sae-1.5/master.html" xlink:actuate="onRequest" xlink:href="https://jmbruel.github.io/antora-template/but/1.0/sae-1.5/master.html" xlink:show="new" xlink:title="https://jmbruel.github.io/antora-template/but/1.0/sae-1.5/master.html" xlink:type="simple"><text fill="#0000FF" font-family="sans-serif" font-size="14" lengthAdjust="spacing" text-decoration="underline" textLength="110" x="809.67" y="223.5889">Recueil besoins</text></a></g><!--entity sae16--><g id="elem_sae16"><polygon fill="#87CEEB" points="1022.17,184.2969,1032.17,174.2969,1197.17,174.2969,1197.17,226.8906,1187.17,236.8906,1022.17,236.8906,1022.17,184.2969" style="stroke:#181818;stroke-width:0.5;"/><line style="stroke:#181818;stroke-width:0.5;" x1="1187.17" x2="1197.17" y1="184.2969" y2="174.2969"/><line style="stroke:#181818;stroke-width:0.5;" x1="1022.17" x2="1187.17" y1="184.2969" y2="184.2969"/><line style="stroke:#181818;stroke-width:0.5;" x1="1187.17" x2="1187.17" y1="184.2969" y2="236.8906"/><text fill="#000000" font-family="sans-serif" font-size="14" lengthAdjust="spacing" textLength="53" x="1078.17" y="207.292">SAE 1.6</text><text fill="#000000" font-family="sans-serif" font-size="14" lengthAdjust="spacing" textLength="135" x="1037.17" y="223.5889">Environnement éco</text></g><!--entity r--><g id="elem_r"><rect fill="#FFFFE0" height="36.2969" rx="35" ry="35" style="stroke:#181818;stroke-width:0.5;" width="95" x="1534.17" y="52.7969"/><text fill="#000000" font-family="sans-serif" font-size="14" lengthAdjust="spacing" textLength="75" x="1544.17" y="75.792">Ressource</text></g><!--entity s--><g id="elem_s"><polygon fill="#87CEEB" points="1548.17,192.7969,1558.17,182.7969,1615.17,182.7969,1615.17,219.0938,1605.17,229.0938,1548.17,229.0938,1548.17,192.7969" style="stroke:#181818;stroke-width:0.5;"/><line style="stroke:#181818;stroke-width:0.5;" x1="1605.17" x2="1615.17" y1="192.7969" y2="182.7969"/><line style="stroke:#181818;stroke-width:0.5;" x1="1548.17" x2="1605.17" y1="192.7969" y2="192.7969"/><line style="stroke:#181818;stroke-width:0.5;" x1="1605.17" x2="1605.17" y1="192.7969" y2="229.0938"/><text fill="#000000" font-family="sans-serif" font-size="14" lengthAdjust="spacing" textLength="27" x="1563.17" y="215.792">SAÉ</text></g><!--reverse link sae15 to sae11--><g id="link_sae15_sae11"><path d="M812.16,240.9269 C775.4,262.7469 727.63,291.0969 689.38,313.7969 " fill="none" id="sae15-backto-sae11" style="stroke:#000000;stroke-width:1.0;stroke-dasharray:7.0,7.0;"/><polygon fill="#000000" points="816.2,238.5369,806.42,239.6991,811.9025,241.0925,810.509,246.5751,816.2,238.5369" style="stroke:#000000;stroke-width:1.0;"/></g><!--reverse link sae11 to sae12--><g id="link_sae11_sae12"><path d="M578.14,397.8469 C560.56,412.7969 539.64,428.7169 518.67,440.2969 C490.53,455.8369 457.7,468.3469 427.9,477.8669 " fill="none" id="sae11-backto-sae12" style="stroke:#000000;stroke-width:1.0;stroke-dasharray:7.0,7.0;"/><polygon fill="#000000" points="581.86,394.6369,572.4288,397.4745,578.0698,397.8979,577.6464,403.5389,581.86,394.6369" style="stroke:#000000;stroke-width:1.0;"/></g><!--link r11 to sae11--><g id="link_r11_sae11"><path d="M464.57,232.7469 C481.87,242.9969 501.5,255.1969 518.67,267.2969 C537.29,280.4169 556.86,295.8469 573.98,309.9669 " fill="none" id="r11-to-sae11" style="stroke:#000000;stroke-width:1.0;"/><polygon fill="#000000" points="577.58,312.9469,573.2041,304.1235,573.7307,309.7558,568.0984,310.2824,577.58,312.9469" style="stroke:#000000;stroke-width:1.0;"/><text fill="#000000" font-family="sans-serif" font-size="13" lengthAdjust="spacing" textLength="20" x="540.67" y="280.3638">2/2</text></g><!--link r11 to sae12--><g id="link_r11_sae12"><path d="M429.02,232.5369 C442.24,269.4669 461.01,339.0169 439.67,393.2969 C428.57,421.5269 406.18,446.7369 385.4,465.6369 " fill="none" id="r11-to-sae12" style="stroke:#000000;stroke-width:1.0;"/><polygon fill="#000000" points="381.84,468.8169,391.2177,465.8072,385.5699,465.4871,385.8901,459.8393,381.84,468.8169" style="stroke:#000000;stroke-width:1.0;"/><text fill="#000000" font-family="sans-serif" font-size="13" lengthAdjust="spacing" textLength="20" x="450.67" y="358.3638">2/2</text></g><!--link r12 to sae15--><g id="link_r12_sae15"><path d="M928.42,97.7569 C917.33,117.9669 901.8,146.2569 889.49,168.6769 " fill="none" id="r12-to-sae15" style="stroke:#000000;stroke-width:1.0;"/><polygon fill="#000000" points="887.17,172.9169,895.0144,166.9615,889.5812,168.5367,888.0061,163.1036,887.17,172.9169" style="stroke:#000000;stroke-width:1.0;"/><text fill="#000000" font-family="sans-serif" font-size="13" lengthAdjust="spacing" textLength="20" x="911.67" y="140.3638">0/2</text></g><!--link r12 to sae16--><g id="link_r12_sae16"><path d="M984.65,97.5669 C998.38,106.5069 1013.49,116.9069 1026.67,127.2969 C1043.23,140.3469 1060.43,156.0169 1074.86,169.8469 " fill="none" id="r12-to-sae16" style="stroke:#000000;stroke-width:1.0;"/><polygon fill="#000000" points="1078.15,173.0169,1074.4479,163.8903,1074.5508,169.5462,1068.8949,169.649,1078.15,173.0169" style="stroke:#000000;stroke-width:1.0;"/><text fill="#000000" font-family="sans-serif" font-size="13" lengthAdjust="spacing" textLength="20" x="1047.67" y="140.3638">0/2</text></g><!--link r13 to sae13--><g id="link_r13_sae13"><path d="M462.46,97.7569 C488.55,118.4069 525.29,147.4969 553.89,170.1369 " fill="none" id="r13-to-sae13" style="stroke:#000000;stroke-width:1.0;"/><polygon fill="#000000" points="557.58,173.0669,553.008,164.3435,553.6604,169.9626,548.0412,170.6149,557.58,173.0669" style="stroke:#000000;stroke-width:1.0;"/><text fill="#000000" font-family="sans-serif" font-size="13" lengthAdjust="spacing" textLength="20" x="520.67" y="140.3638">3/0</text></g><!--link r14 to sae13--><g id="link_r14_sae13"><path d="M581.57,97.7569 C584.57,117.7069 588.76,145.5369 592.11,167.8169 " fill="none" id="r14-to-sae13" style="stroke:#000000;stroke-width:1.0;"/><polygon fill="#000000" points="592.85,172.7469,595.472,163.2535,592.109,167.8021,587.5604,164.4391,592.85,172.7469" style="stroke:#000000;stroke-width:1.0;"/><text fill="#000000" font-family="sans-serif" font-size="13" lengthAdjust="spacing" textLength="20" x="589.67" y="140.3638">2/0</text></g><!--link r15 to sae14--><g id="link_r15_sae14"><path d="M1426.42,97.7569 C1421.6,117.7969 1414.87,145.7769 1409.5,168.1069 " fill="none" id="r15-to-sae14" style="stroke:#000000;stroke-width:1.0;"/><polygon fill="#000000" points="1408.37,172.7669,1414.3634,164.9515,1409.539,167.9055,1406.5851,163.0811,1408.37,172.7669" style="stroke:#000000;stroke-width:1.0;"/><text fill="#000000" font-family="sans-serif" font-size="13" lengthAdjust="spacing" textLength="20" x="1419.67" y="140.3638">2/2</text></g><!--link r16 to sae12--><g id="link_r16_sae12"><path d="M187.32,380.5669 C217.47,404.3569 262.5,439.8969 295.79,466.1669 " fill="none" id="r16-to-sae12" style="stroke:#000000;stroke-width:1.0;"/><polygon fill="#000000" points="299.42,469.0369,294.848,460.3135,295.5004,465.9326,289.8812,466.5849,299.42,469.0369" style="stroke:#000000;stroke-width:1.0;"/><text fill="#000000" font-family="sans-serif" font-size="13" lengthAdjust="spacing" textLength="7" x="259.67" y="436.3638">x</text></g><!--link r17 to sae12--><g id="link_r17_sae12"><path d="M339.67,380.5669 C339.67,403.5769 339.67,437.5769 339.67,463.5569 " fill="none" id="r17-to-sae12" style="stroke:#000000;stroke-width:1.0;"/><polygon fill="#000000" points="339.67,468.4569,343.67,459.4569,339.67,463.4569,335.67,459.4569,339.67,468.4569" style="stroke:#000000;stroke-width:1.0;"/><text fill="#000000" font-family="sans-serif" font-size="13" lengthAdjust="spacing" textLength="7" x="340.67" y="436.3638">x</text></g><!--link r18 to sae15--><g id="link_r18_sae15"><path d="M1062.74,97.6869 C1041.26,106.4069 1017.69,116.6469 996.67,127.2969 C971.28,140.1569 944.23,156.3069 921.64,170.5269 " fill="none" id="r18-to-sae15" style="stroke:#000000;stroke-width:1.0;"/><polygon fill="#000000" points="917.58,173.0969,927.3252,171.6717,921.8071,170.4264,923.0524,164.9083,917.58,173.0969" style="stroke:#000000;stroke-width:1.0;"/><text fill="#000000" font-family="sans-serif" font-size="13" lengthAdjust="spacing" textLength="20" x="997.67" y="140.3638">4/0</text></g><!--link r18 to sae16--><g id="link_r18_sae16"><path d="M1127.37,97.7569 C1124.07,117.7069 1119.47,145.5369 1115.79,167.8169 " fill="none" id="r18-to-sae16" style="stroke:#000000;stroke-width:1.0;"/><polygon fill="#000000" points="1114.97,172.7469,1120.3836,164.5193,1115.785,167.8138,1112.4906,163.2152,1114.97,172.7469" style="stroke:#000000;stroke-width:1.0;"/><text fill="#000000" font-family="sans-serif" font-size="13" lengthAdjust="spacing" textLength="7" x="1123.67" y="140.3638">x</text></g><!--link r19 to sae14--><g id="link_r19_sae14"><path d="M1308.92,97.7569 C1326.46,118.2269 1351.11,146.9769 1370.44,169.5269 " fill="none" id="r19-to-sae14" style="stroke:#000000;stroke-width:1.0;"/><polygon fill="#000000" points="1373.49,173.0869,1370.6699,163.6504,1370.236,169.2906,1364.5959,168.8567,1373.49,173.0869" style="stroke:#000000;stroke-width:1.0;"/><text fill="#000000" font-family="sans-serif" font-size="13" lengthAdjust="spacing" textLength="20" x="1348.67" y="140.3638">2/0</text></g><!--link r19 to sae16--><g id="link_r19_sae16"><path d="M1252.12,97.7569 C1224.64,118.4069 1185.92,147.4969 1155.79,170.1369 " fill="none" id="r19-to-sae16" style="stroke:#000000;stroke-width:1.0;"/><polygon fill="#000000" points="1151.86,173.0969,1161.46,170.8969,1155.86,170.0969,1156.66,164.4969,1151.86,173.0969" style="stroke:#000000;stroke-width:1.0;"/><text fill="#000000" font-family="sans-serif" font-size="13" lengthAdjust="spacing" textLength="7" x="1210.67" y="140.3638">x</text></g><!--link r110 to sae12--><g id="link_r110_sae12"><path d="M111.42,97.7469 C77.21,155.9969 6,299.4169 69.67,393.2969 C108.68,450.8269 183.9,477.5669 245.06,489.9969 " fill="none" id="r110-to-sae12" style="stroke:#000000;stroke-width:1.0;"/><polygon fill="#000000" points="249.82,490.9369,241.7538,485.2857,244.9127,489.9783,240.2201,493.1373,249.82,490.9369" style="stroke:#000000;stroke-width:1.0;"/><text fill="#000000" font-family="sans-serif" font-size="13" lengthAdjust="spacing" textLength="7" x="48.67" y="280.3638">x</text></g><!--link r110 to sae13--><g id="link_r110_sae13"><path d="M199.61,90.5969 C275.09,110.5369 397.08,143.3669 501.67,174.2969 C505.36,175.3869 509.12,176.5169 512.91,177.6669 " fill="none" id="r110-to-sae13" style="stroke:#000000;stroke-width:1.0;"/><polygon fill="#000000" points="517.45,179.0469,510.0053,172.5988,512.6668,177.5905,507.6751,180.252,517.45,179.0469" style="stroke:#000000;stroke-width:1.0;"/><text fill="#000000" font-family="sans-serif" font-size="13" lengthAdjust="spacing" textLength="20" x="390.67" y="140.3638">0/2</text></g><!--link r111 to sae13--><g id="link_r111_sae13"><path d="M723.22,97.7569 C699.1,118.3269 665.16,147.2569 638.65,169.8569 " fill="none" id="r111-to-sae13" style="stroke:#000000;stroke-width:1.0;"/><polygon fill="#000000" points="634.94,173.0169,644.3826,170.2173,638.7433,169.7712,639.1894,164.1319,634.94,173.0169" style="stroke:#000000;stroke-width:1.0;"/><text fill="#000000" font-family="sans-serif" font-size="13" lengthAdjust="spacing" textLength="20" x="686.67" y="140.3638">0/2</text></g><!--link r111 to sae15--><g id="link_r111_sae15"><path d="M776.31,97.7569 C794.16,118.2269 819.24,146.9769 838.91,169.5269 " fill="none" id="r111-to-sae15" style="stroke:#000000;stroke-width:1.0;"/><polygon fill="#000000" points="842.02,173.0969,839.1038,163.6897,838.7275,169.334,833.0832,168.9577,842.02,173.0969" style="stroke:#000000;stroke-width:1.0;"/><text fill="#000000" font-family="sans-serif" font-size="13" lengthAdjust="spacing" textLength="7" x="816.67" y="140.3638">x</text></g><!--link r111 to sae16--><g id="link_r111_sae16"><path d="M790.61,97.7469 C813.84,113.0869 844.96,131.8769 874.67,144.2969 C919.59,163.0669 971.84,177.2269 1015.65,187.1069 " fill="none" id="r111-to-sae16" style="stroke:#000000;stroke-width:1.0;"/><polygon fill="#000000" points="1020.3,188.1369,1012.3857,182.2748,1015.4197,187.0492,1010.6454,190.0833,1020.3,188.1369" style="stroke:#000000;stroke-width:1.0;"/><text fill="#000000" font-family="sans-serif" font-size="13" lengthAdjust="spacing" textLength="20" x="875.67" y="140.3638">0/4</text></g><!--link r to s--><g id="link_r_s"><path d="M1581.67,89.1869 C1581.67,111.2569 1581.67,149.6269 1581.67,176.0769 " fill="none" id="r-to-s" style="stroke:#000000;stroke-width:1.0;"/><polygon fill="#000000" points="1581.67,181.0169,1585.67,172.0169,1581.67,176.0169,1577.67,172.0169,1581.67,181.0169" style="stroke:#000000;stroke-width:1.0;"/><text fill="#000000" font-family="sans-serif" font-size="13" lengthAdjust="spacing" textLength="36" x="1582.67" y="140.3638">TD/TP</text></g><!--SRC=[lPJBRjiu58RNrLEmsMHboP8lIOeWW9ruWW9EEuWp60pYB6ZgH693aHwIocK6ym1zYowRvz2BzUWQqV5wl33iNv_-StWk_1Z3FPT0vii_5cJryB8HENWV6_6lnNBvzK-ov4bgNq08zTGzkhnUBBxKJn8D83tFF72vfPfc116Q2ti3ptOcU28pa9Om_0BTnunLcYP0_lK8cLFsa6YLo_XS2QMRoDv_VLwgU3zSvkwY6fYbCX7x-IhtKbSw1jru28HS4wgrUgeC2AcWqrFApixseLjKwgDys0q6sTQ-eDoBTK7rmqfG2vUQugDP6QUVnOVVbBJlX1N_1qWOrN- -q0p8ZOPDpbAmLojCftVwCZfJMe8cuR2V9nFKc7rPOfyOpClU_w-Pzajy1SPW3Qk9QQS5YtmuUFkGQsHKhXaOhvsUW-lG7uPh-LboowdbIXAQumW- -WU46gB3q4MZjRp0XuIN0UufMf4ds3HivBAZqjPgvMEYBEMjuyYbnXrbNemjVcPesP1ZbvmqP9opAj7vHGjEN72wbbVKfeR4t31T_BHlbbENF5hBhxdbmf1x9MDQhXhDdrluo8MFr_8IJ1LwgzKtdoYTKB-5ZrtuP2sBxqn9bN5eY1E728ThESCbezmG2ooL_E-y9N7i71GRDAS6Ju4hB2XXAilQiDWWjychMV7TUDMs7wnc2uAlOzsohIXUg-EL-Q_b1epYE2Y2erPP6GherNyFUtskidBKkC4pnuTK9AfZ8uUjUcqi5Q8Uegqo5ZfsvB3OyNDTlDAcYHqrTYZizkrjQktMV0g2Rzb6vo3yXDiqt_XS1LIM1HfOl23A3GiskGsmx04Q3V3b8AEOWFPJcmcSUvO35wG-jBcxwq9Ed90uDmlvoBMI4gfRjtXbRmUUUZkLFa-HnErDE61ZJ5Lvl2vAMtBg-qr5g-_kVxJZWJV3DWNFSektxMTvhmXsC2IF_j37ndeUDfWC1cUr5_b4eY1ojAZJeawRe3RSqQQTDkgq4MgZO8ZQsD6YIfjqshYBCNNYFgDoz4uvTl8OLrx7JXubTRBZFdIqbWg7x-nxqgWxKwyWUyL9-tAuKv1ntGwoX0HaZB-wlUlkochDwZ4f6rnDWwTh7_IukGXkVaSNCZCsHvfHbXQlW0kGQvA1jRfQMJncyOCajBp6cot6uJki2p2uJNaSWxnhilq5]--></g></svg>